<svg xmlns="http://www.w3.org/2000/svg" viewBox="0 0 1200 1200" width="1200" height="1200">
  <defs>
    <linearGradient id="bg" x1="0" x2="1" y1="0" y2="1">
      <stop offset="0%" stop-color="#FFF1F6"/>
      <stop offset="100%" stop-color="#FFE0EC"/>
    </linearGradient>
  </defs>
  <rect width="1200" height="1200" fill="url(#bg)"/>
  <rect x="315" y="260" width="180" height="620" rx="42" fill="#C08497"/>
  <rect x="505" y="225" width="220" height="690" rx="54" fill="#F4B5D0"/>
  <rect x="765" y="310" width="120" height="540" rx="34" fill="#9D4EDD"/>
  <circle cx="405" cy="220" r="72" fill="#FDE2E4"/>
  <circle cx="615" cy="170" r="62" fill="#F8D7E3"/>
  <circle cx="825" cy="250" r="46" fill="#FFD6E8"/>
  <path d="M615 305 C680 350, 718 420, 718 500 C718 610, 660 710, 615 790 C570 710, 512 610, 512 500 C512 420, 550 350, 615 305Z" fill="#FFF7FB"/>
  <circle cx="615" cy="510" r="52" fill="#C08497"/>
</svg>