<svg xmlns="http://www.w3.org/2000/svg" viewBox="0 0 1200 1200" width="1200" height="1200">
  <defs>
    <linearGradient id="bg" x1="0" x2="1" y1="0" y2="1">
      <stop offset="0%" stop-color="#EAF7FF"/>
      <stop offset="100%" stop-color="#D6F0FF"/>
    </linearGradient>
  </defs>
  <rect width="1200" height="1200" fill="url(#bg)"/>
  <rect x="520" y="230" width="160" height="650" rx="36" fill="#1F6F8B"/>
  <rect x="555" y="160" width="90" height="80" rx="24" fill="#0F172A"/>
  <circle cx="600" cy="470" r="92" fill="#F8FAFC"/>
  <circle cx="600" cy="470" r="42" fill="#1F6F8B"/>
  <path d="M600 370 C665 420, 700 490, 700 575 C700 700, 635 790, 600 870 C565 790, 500 700, 500 575 C500 490, 535 420, 600 370Z" fill="#D8F3FF" opacity="0.92"/>
  <rect x="430" y="790" width="340" height="70" rx="20" fill="#3A97B0" opacity="0.85"/>
  <circle cx="454" cy="825" r="20" fill="#F8FAFC"/>
  <circle cx="748" cy="825" r="20" fill="#F8FAFC"/>
</svg>